<svg xmlns="http://www.w3.org/2000/svg" width="1200" height="820" viewBox="0 0 1200 820">
<rect width="100%" height="100%" fill="#f7f3eb"/>
<rect x="48" y="40" width="1104" height="740" rx="28" fill="#fffaf2" stroke="#d7c6a8" stroke-width="2"/>
<text x="88" y="98" font-family="Georgia, Times New Roman, serif" font-size="34" fill="#1d2a2e">BrainLayer Frozen Baseline</text>
<text x="88" y="132" font-family="Helvetica, Arial, sans-serif" font-size="18" fill="#5a5f62">study-v1-gemini-core | authored + hard are strong; held-out is the real frontier</text>
<text x="90" y="168" font-family="Helvetica, Arial, sans-serif" font-size="13" fill="#7a746b">Passes per pack</text>
<line x1="90.0" y1="180" x2="90.0" y2="540" stroke="#e7dcc7" stroke-width="1"/>
<text x="86.0" y="562" font-family="Helvetica, Arial, sans-serif" font-size="11" fill="#7a746b">0</text>
<line x1="122.1" y1="180" x2="122.1" y2="540" stroke="#e7dcc7" stroke-width="1"/>
<text x="118.1" y="562" font-family="Helvetica, Arial, sans-serif" font-size="11" fill="#7a746b">1</text>
<line x1="154.2" y1="180" x2="154.2" y2="540" stroke="#e7dcc7" stroke-width="1"/>
<text x="150.2" y="562" font-family="Helvetica, Arial, sans-serif" font-size="11" fill="#7a746b">2</text>
<line x1="186.3" y1="180" x2="186.3" y2="540" stroke="#e7dcc7" stroke-width="1"/>
<text x="182.3" y="562" font-family="Helvetica, Arial, sans-serif" font-size="11" fill="#7a746b">3</text>
<line x1="218.4" y1="180" x2="218.4" y2="540" stroke="#e7dcc7" stroke-width="1"/>
<text x="214.4" y="562" font-family="Helvetica, Arial, sans-serif" font-size="11" fill="#7a746b">4</text>
<line x1="250.5" y1="180" x2="250.5" y2="540" stroke="#e7dcc7" stroke-width="1"/>
<text x="246.5" y="562" font-family="Helvetica, Arial, sans-serif" font-size="11" fill="#7a746b">5</text>
<line x1="282.6" y1="180" x2="282.6" y2="540" stroke="#e7dcc7" stroke-width="1"/>
<text x="278.6" y="562" font-family="Helvetica, Arial, sans-serif" font-size="11" fill="#7a746b">6</text>
<line x1="314.7" y1="180" x2="314.7" y2="540" stroke="#e7dcc7" stroke-width="1"/>
<text x="310.7" y="562" font-family="Helvetica, Arial, sans-serif" font-size="11" fill="#7a746b">7</text>
<line x1="346.8" y1="180" x2="346.8" y2="540" stroke="#e7dcc7" stroke-width="1"/>
<text x="342.8" y="562" font-family="Helvetica, Arial, sans-serif" font-size="11" fill="#7a746b">8</text>
<line x1="378.9" y1="180" x2="378.9" y2="540" stroke="#e7dcc7" stroke-width="1"/>
<text x="374.9" y="562" font-family="Helvetica, Arial, sans-serif" font-size="11" fill="#7a746b">9</text>
<line x1="411.1" y1="180" x2="411.1" y2="540" stroke="#e7dcc7" stroke-width="1"/>
<text x="407.1" y="562" font-family="Helvetica, Arial, sans-serif" font-size="11" fill="#7a746b">10</text>
<line x1="443.2" y1="180" x2="443.2" y2="540" stroke="#e7dcc7" stroke-width="1"/>
<text x="439.2" y="562" font-family="Helvetica, Arial, sans-serif" font-size="11" fill="#7a746b">11</text>
<line x1="475.3" y1="180" x2="475.3" y2="540" stroke="#e7dcc7" stroke-width="1"/>
<text x="471.3" y="562" font-family="Helvetica, Arial, sans-serif" font-size="11" fill="#7a746b">12</text>
<line x1="507.4" y1="180" x2="507.4" y2="540" stroke="#e7dcc7" stroke-width="1"/>
<text x="503.4" y="562" font-family="Helvetica, Arial, sans-serif" font-size="11" fill="#7a746b">13</text>
<line x1="539.5" y1="180" x2="539.5" y2="540" stroke="#e7dcc7" stroke-width="1"/>
<text x="535.5" y="562" font-family="Helvetica, Arial, sans-serif" font-size="11" fill="#7a746b">14</text>
<line x1="571.6" y1="180" x2="571.6" y2="540" stroke="#e7dcc7" stroke-width="1"/>
<text x="567.6" y="562" font-family="Helvetica, Arial, sans-serif" font-size="11" fill="#7a746b">15</text>
<line x1="603.7" y1="180" x2="603.7" y2="540" stroke="#e7dcc7" stroke-width="1"/>
<text x="599.7" y="562" font-family="Helvetica, Arial, sans-serif" font-size="11" fill="#7a746b">16</text>
<line x1="635.8" y1="180" x2="635.8" y2="540" stroke="#e7dcc7" stroke-width="1"/>
<text x="631.8" y="562" font-family="Helvetica, Arial, sans-serif" font-size="11" fill="#7a746b">17</text>
<line x1="667.9" y1="180" x2="667.9" y2="540" stroke="#e7dcc7" stroke-width="1"/>
<text x="663.9" y="562" font-family="Helvetica, Arial, sans-serif" font-size="11" fill="#7a746b">18</text>
<line x1="700.0" y1="180" x2="700.0" y2="540" stroke="#e7dcc7" stroke-width="1"/>
<text x="696.0" y="562" font-family="Helvetica, Arial, sans-serif" font-size="11" fill="#7a746b">19</text>
<text x="86" y="162" text-anchor="start" font-family="Helvetica, Arial, sans-serif" font-size="19" fill="#263238">Standard</text>
<text x="712" y="162" font-family="Helvetica, Arial, sans-serif" font-size="12" fill="#7a746b">/19</text>
<rect x="90" y="180" width="610.0" height="26" rx="13" fill="#efe3ce"/>
<rect x="90" y="180" width="610.0" height="26" rx="13" fill="#0b7285"/>
<text x="82" y="198" text-anchor="end" font-family="Helvetica, Arial, sans-serif" font-size="13" fill="#364046">Gemini 2.5 Flash</text>
<text x="712.0" y="198" font-family="Helvetica, Arial, sans-serif" font-size="13" fill="#364046">19/19</text>
<rect x="90" y="216" width="610.0" height="26" rx="13" fill="#efe3ce"/>
<rect x="90" y="216" width="513.7" height="26" rx="13" fill="#e67700"/>
<text x="82" y="234" text-anchor="end" font-family="Helvetica, Arial, sans-serif" font-size="13" fill="#364046">Gemini 2.5 Flash-Lite</text>
<text x="712.0" y="234" font-family="Helvetica, Arial, sans-serif" font-size="13" fill="#364046">16/19</text>
<text x="86" y="280" text-anchor="start" font-family="Helvetica, Arial, sans-serif" font-size="19" fill="#263238">Hard</text>
<text x="712" y="280" font-family="Helvetica, Arial, sans-serif" font-size="12" fill="#7a746b">/14</text>
<rect x="90" y="298" width="449.5" height="26" rx="13" fill="#efe3ce"/>
<rect x="90" y="298" width="449.5" height="26" rx="13" fill="#0b7285"/>
<text x="82" y="316" text-anchor="end" font-family="Helvetica, Arial, sans-serif" font-size="13" fill="#364046">Gemini 2.5 Flash</text>
<text x="551.5" y="316" font-family="Helvetica, Arial, sans-serif" font-size="13" fill="#364046">14/14</text>
<rect x="90" y="334" width="449.5" height="26" rx="13" fill="#efe3ce"/>
<rect x="90" y="334" width="449.5" height="26" rx="13" fill="#e67700"/>
<text x="82" y="352" text-anchor="end" font-family="Helvetica, Arial, sans-serif" font-size="13" fill="#364046">Gemini 2.5 Flash-Lite</text>
<text x="551.5" y="352" font-family="Helvetica, Arial, sans-serif" font-size="13" fill="#364046">14/14</text>
<text x="86" y="398" text-anchor="start" font-family="Helvetica, Arial, sans-serif" font-size="19" fill="#263238">Held Out</text>
<text x="712" y="398" font-family="Helvetica, Arial, sans-serif" font-size="12" fill="#7a746b">/14</text>
<rect x="90" y="416" width="449.5" height="26" rx="13" fill="#efe3ce"/>
<rect x="90" y="416" width="321.1" height="26" rx="13" fill="#0b7285"/>
<text x="82" y="434" text-anchor="end" font-family="Helvetica, Arial, sans-serif" font-size="13" fill="#364046">Gemini 2.5 Flash</text>
<text x="551.5" y="434" font-family="Helvetica, Arial, sans-serif" font-size="13" fill="#364046">10/14</text>
<rect x="90" y="452" width="449.5" height="26" rx="13" fill="#efe3ce"/>
<rect x="90" y="452" width="288.9" height="26" rx="13" fill="#e67700"/>
<text x="82" y="470" text-anchor="end" font-family="Helvetica, Arial, sans-serif" font-size="13" fill="#364046">Gemini 2.5 Flash-Lite</text>
<text x="551.5" y="470" font-family="Helvetica, Arial, sans-serif" font-size="13" fill="#364046">9/14</text>
<rect x="760" y="180" width="330" height="148" rx="22" fill="#fff" stroke="#0b7285" stroke-width="2"/>
<rect x="760" y="180" width="18" height="148" rx="9" fill="#0b7285"/>
<text x="794" y="218" font-family="Georgia, Times New Roman, serif" font-size="24" fill="#1f2c31">Gemini 2.5 Flash</text>
<text x="794" y="252" font-family="Helvetica, Arial, sans-serif" font-size="15" fill="#415057">overall 43/47</text>
<text x="794" y="278" font-family="Helvetica, Arial, sans-serif" font-size="14" fill="#415057">natural extraction 14/16 | behavior 13/15</text>
<text x="794" y="304" font-family="Helvetica, Arial, sans-serif" font-size="14" fill="#415057">cost $0.0185 | avg latency 1993ms</text>
<rect x="760" y="354" width="330" height="148" rx="22" fill="#fff" stroke="#e67700" stroke-width="2"/>
<rect x="760" y="354" width="18" height="148" rx="9" fill="#e67700"/>
<text x="794" y="392" font-family="Georgia, Times New Roman, serif" font-size="24" fill="#1f2c31">Gemini 2.5 Flash-Lite</text>
<text x="794" y="426" font-family="Helvetica, Arial, sans-serif" font-size="15" fill="#415057">overall 39/47</text>
<text x="794" y="452" font-family="Helvetica, Arial, sans-serif" font-size="14" fill="#415057">natural extraction 13/16 | behavior 12/15</text>
<text x="794" y="478" font-family="Helvetica, Arial, sans-serif" font-size="14" fill="#415057">cost $0.0051 | avg latency 982ms</text>
<rect x="760" y="560" width="330" height="150" rx="22" fill="#f3eee3" stroke="#d8ccba" stroke-width="1.5"/>
<text x="784" y="594" font-family="Georgia, Times New Roman, serif" font-size="23" fill="#1f2c31">Read Of The Baseline</text>
<text x="784" y="626" font-family="Helvetica, Arial, sans-serif" font-size="15" fill="#425055">1. Contradiction handling is effectively solved in this baseline.</text>
<text x="784" y="650" font-family="Helvetica, Arial, sans-serif" font-size="15" fill="#425055">2. Natural extraction is strong on authored and hard packs.</text>
<text x="784" y="674" font-family="Helvetica, Arial, sans-serif" font-size="15" fill="#425055">3. Held-out wording remains the real generalization boundary.</text>
<text x="90" y="612" font-family="Georgia, Times New Roman, serif" font-size="22" fill="#1f2c31">Why freeze here?</text>
<text x="90" y="640" font-family="Helvetica, Arial, sans-serif" font-size="15" fill="#425055">The remaining misses are in held-out language variation, not broken infrastructure.</text>
<text x="90" y="664" font-family="Helvetica, Arial, sans-serif" font-size="15" fill="#425055">So this baseline stays intentionally imperfect instead of tuning held-out phrasing away.</text>
<text x="90" y="726" font-family="Helvetica, Arial, sans-serif" font-size="12" fill="#7a746b">Source bundle: artifacts/study_runs/20260402T175429Z-study-v1-gemini-core</text>
</svg>